<svg width="170" height="65" viewbox="0 0 170 65" xmlns="http://www.w3.org/2000/svg">
    <title>PDOK logo</title>
    <g fill="#FFF" fill-rule="evenodd"><path d="M43.568 30.306L23.524 41.934 3.429 30.304c-1.105-.639-2.507-.239-3.132.895-.624 1.134-.233 2.572.872 3.212l21.226 12.285a2.253 2.253 0 0 0 2.262-.001L45.833 34.41c1.105-.641 1.494-2.08.869-3.213s-2.028-1.532-3.134-.891"/><path d="M43.534 41.291L23.499 52.367 3.414 41.29c-1.105-.609-2.507-.228-3.13.852-.624 1.08-.176 2.45.93 3.06l20.08 11.042v6.427c0 1.236.975 2.329 2.24 2.329h.028c1.264 0 2.328-1.093 2.328-2.329v-6.4L45.855 45.2a2.21 2.21 0 0 0 .84-3.06c-.625-1.08-2.056-1.46-3.161-.85M26 2.25C26 1.007 24.88 0 23.5 0S21 1.007 21 2.25v19.5c0 1.243 1.12 2.25 2.5 2.25s2.5-1.007 2.5-2.25V2.25z"/><path d="M1.154 23.872l21.19 11.833a2.312 2.312 0 0 0 2.262 0l21.196-11.833c.723-.404 1.198-1.16 1.198-1.978a2.24 2.24 0 0 0-1.14-1.978L28.157 10v5.222l11.891 6.672L23.5 31.116 7.024 21.894l11.92-6.63V10.04L1.198 19.916C.476 20.319 0 21.075 0 21.894s.432 1.574 1.154 1.978M70 40.455c-4.542 0-8.224-3.55-8.224-7.927s3.682-7.926 8.224-7.926 8.224 3.549 8.224 7.926c0 4.378-3.682 7.927-8.224 7.927M70 20c-3.12 0-5.984 1.06-8.224 2.827v-.526c0-1.265-1.075-2.301-2.388-2.301C58.074 20 57 21.036 57 22.301V62.7C57 63.964 58.074 65 59.388 65c1.313 0 2.388-1.036 2.388-2.301v-20.47A13.246 13.246 0 0 0 70 45.058c7.18 0 13-5.61 13-12.529S77.18 20 70 20M100 40.398c-4.542 0-8.224-3.549-8.224-7.926 0-4.378 3.682-7.927 8.224-7.927s8.224 3.55 8.224 7.927-3.682 7.926-8.224 7.926M110.612 0c-1.313 0-2.388 1.036-2.388 2.301v20.47A13.246 13.246 0 0 0 100 19.942c-7.18 0-13 5.61-13 12.529S92.82 45 100 45c3.12 0 5.984-1.06 8.224-2.827v.526c0 1.265 1.075 2.301 2.388 2.301 1.314 0 2.388-1.036 2.388-2.301V2.3C113 1.036 111.926 0 110.612 0M168.824 40.685l-14.569-8.225 14.567-8.23a2.278 2.278 0 0 0 .86-3.14 2.35 2.35 0 0 0-3.182-.842l-14.8 8.383V2.301c0-1.265-1.058-2.301-2.35-2.301-1.293 0-2.35 1.036-2.35 2.301V42.7c0 1.265 1.057 2.301 2.35 2.301 1.292 0 2.35-1.036 2.35-2.301v-6.39l14.8 8.362c1.119.633 2.549.158 3.195-.865h-.007c.646-1.022.256-2.488-.864-3.12M129.5 40.408a7.908 7.908 0 1 1 0-15.816 7.908 7.908 0 0 1 0 15.816m0-20.408c-6.904 0-12.5 5.596-12.5 12.5S122.596 45 129.5 45 142 39.404 142 32.5 136.404 20 129.5 20"/></g>
</svg>
